<?xml version="1.0" standalone="no"?>
<!DOCTYPE svg PUBLIC "-//W3C//DTD SVG 20010904//EN"
 "http://www.w3.org/TR/2001/REC-SVG-20010904/DTD/svg10.dtd">
<svg version="1.0" xmlns="http://www.w3.org/2000/svg"
 width="100.000000pt" height="53.000000pt" viewBox="0 0 100.000000 53.000000"
 preserveAspectRatio="xMidYMid meet">

<g transform="translate(0.000000,53.000000) scale(0.100000,-0.100000)"
fill="#000000" stroke="none">
<path d="M60 225 c0 -44 1 -45 33 -45 48 0 57 10 50 53 -5 35 -7 37 -44 37
l-39 0 0 -45z m70 20 c0 -16 -45 -21 -54 -6 -8 12 4 21 31 21 14 0 23 -6 23
-15z m3 -40 c-4 -15 -56 -12 -61 3 -3 10 5 13 29 10 19 -2 33 -7 32 -13z"/>
<path d="M181 223 c0 -39 2 -44 9 -25 12 27 36 29 45 2 3 -11 11 -20 16 -20 6
0 6 7 -1 19 -7 13 -7 22 0 26 5 3 10 15 10 26 0 16 -7 19 -40 19 l-40 0 1 -47z
m69 21 c0 -11 -8 -14 -27 -12 -39 4 -42 28 -4 28 21 0 31 -5 31 -16z"/>
<path d="M300 225 l0 -45 38 1 c35 1 35 2 8 8 -39 8 -44 28 -9 34 l28 4 -27 2
c-40 2 -36 29 5 34 31 4 31 4 -5 5 l-38 2 0 -45z"/>
<path d="M413 225 c0 -27 2 -38 4 -22 2 15 2 37 0 50 -2 12 -4 0 -4 -28z"/>
<path d="M467 263 c18 -3 23 -13 26 -46 l4 -42 1 42 c2 35 6 42 25 46 12 2 0
4 -28 4 -27 0 -40 -2 -28 -4z"/>
<path d="M570 225 l0 -45 38 1 c36 1 36 2 7 8 -27 6 -30 10 -30 44 0 20 -3 37
-7 37 -5 0 -8 -20 -8 -45z"/>
<path d="M673 225 c0 -27 2 -38 4 -22 2 15 2 37 0 50 -2 12 -4 0 -4 -28z"/>
<path d="M732 224 c1 -36 2 -40 5 -16 2 17 7 32 10 32 4 0 19 -15 34 -32 l28
-33 -1 50 c-1 38 -2 42 -5 16 l-4 -34 -35 34 -34 33 2 -50z"/>
<path d="M851 248 c-16 -43 17 -76 64 -64 33 8 35 46 3 46 -18 0 -20 -2 -8
-10 22 -14 -2 -34 -30 -25 -16 5 -20 13 -18 33 2 22 9 28 38 33 l35 6 -38 2
c-31 1 -39 -3 -46 -21z"/>
<path d="M382 100 c0 -19 2 -27 5 -17 2 9 2 25 0 35 -3 9 -5 1 -5 -18z"/>
<path d="M419 128 c-6 -22 -4 -50 4 -55 6 -3 7 -1 3 5 -3 6 -2 13 4 17 6 4 8
11 5 16 -4 5 0 9 8 9 14 0 16 -27 4 -48 -6 -8 -3 -10 8 -6 25 10 15 58 -12 62
-13 2 -23 2 -24 0z"/>
<path d="M490 110 c0 -14 6 -20 18 -18 11 2 17 -3 16 -14 -1 -10 2 -15 7 -12
5 3 9 18 9 35 0 24 -4 29 -25 29 -19 0 -25 -5 -25 -20z m37 4 c-3 -3 -12 -4
-19 -1 -8 3 -5 6 6 6 11 1 17 -2 13 -5z"/>
<path d="M565 109 c-8 -24 -7 -24 23 -33 13 -5 22 -3 22 3 0 6 -9 11 -20 11
-25 0 -26 16 -2 29 15 9 16 10 0 11 -9 0 -20 -9 -23 -21z"/>
</g>
</svg>
