<?xml version="1.0" encoding="utf-8"?>
<!-- Generator: Adobe Illustrator 19.0.0, SVG Export Plug-In . SVG Version: 6.00 Build 0)  -->
<svg version="1.1" id="layer" xmlns="http://www.w3.org/2000/svg" xmlns:xlink="http://www.w3.org/1999/xlink" x="0px" y="0px"
	 viewBox="-153 -46 652 652" style="enable-background:new -153 -46 652 652;" xml:space="preserve">
<style type="text/css">
	.st0{fill:#07213F;}
	.st1{fill:#FFC72C;}
</style>
<path id="path4144" class="st0" d="M437.1,269.2c-21.4,0-35.1,12.4-35.1,33.7c0,20.6,15,31.9,35.1,31.9c21.8,0,30.9-8.4,30.9-9
	v-28.2h-29.9v10.3h18.7v12.5c-6.2,4.5-19.7,3.7-19.7,3.7c-12.4,0-23.9-5.3-23.9-21.2c0-14.1,10.3-22.9,23.9-22.9
	c9.9,0,16.9,2.7,20.8,5l4.6-9.9C457.4,272.2,448.7,269.2,437.1,269.2z M-132,270.3V334h40.2c17.3,0,21.2-9.5,21.2-19.5
	c0-5-2.7-11.4-9.1-14.1c4.3-3.1,5.6-7.2,5.6-12.3c0-12.8-6.9-17.8-21.8-17.8H-132z M371.2,270.4v43.4l-37.8-42.2l-1-1.1h-8.8v63.7
	h11.2V290l39.6,44.1h8.1v-63.7H371.2z M29.7,270.4V334h53.7v-10.7H40.9v-15.9h30.8v-10.3H40.9v-16h42.4v-10.7
	C83.3,270.4,29.7,270.4,29.7,270.4z M136,270.4v10.7h23.7v52.9H171v-52.9h23.7v-10.7H136z M104,270.4V334h11.2v-63.6H104z
	 M-49.9,270.4v63.7h11.2v-26.2l16.7,0L-5.6,334H7.6l-17-26.2c9.6-0.8,17.6-6.5,17.6-18.9c0-15.3-11.9-18.6-22.9-18.6L-49.9,270.4
	L-49.9,270.4z M216.3,270.4v63.7h49.6v-10.7h-38.4v-52.9H216.3z M284.1,270.4v63.7h11.2v-63.7C295.3,270.4,284.1,270.4,284.1,270.4z
	 M-121,280.4h24.6c6.8,0,11.1,2.7,11.1,8c0,3.1-0.9,8.6-8.6,8.6l-27.1,0V280.4L-121,280.4z M-38.7,280.7h24.1
	c4.3,0,11.6,1.1,11.6,9.2c0,6.8-6.6,7.7-11.6,7.7s-24.1,0-24.1,0V280.7L-38.7,280.7z M-121,307h27.7c6,0,11.2,1.3,11.2,8.5
	c0,7.2-6.1,8.4-9.7,8.4H-121C-121,324-121,307-121,307z M128.9,365.1c-7.7,0-13.6,2-16.9,5.6c-2.2,2.4-3.2,5.5-2.8,8.9
	c0.2,2,1,4.9,3.8,7.4l1,0.9l-1.1,0.8c-0.8,0.6-1.5,1.2-2,1.8c-2.4,2.6-3.5,6.1-3.2,9.9c0.6,6.5,6.4,13.5,21.2,13.5h0
	c14.8,0,20.7-7,21.2-13.5c0.3-3.9-0.8-7.3-3.2-9.9c-0.6-0.6-1.2-1.2-2-1.8l-1.1-0.8l1-0.9c2.8-2.6,3.6-5.5,3.8-7.5
	c0.4-3.4-0.6-6.5-2.8-8.9C142.5,367,136.6,365.1,128.9,365.1L128.9,365.1z M178,365.1c-7.7,0-13.6,2-16.9,5.6
	c-2.2,2.4-3.2,5.5-2.8,8.9c0.2,2,1,4.9,3.8,7.4l1,0.9l-1.1,0.8c-0.8,0.6-1.5,1.2-2,1.8c-2.4,2.6-3.5,6.1-3.2,9.9
	c0.6,6.5,6.4,13.5,21.2,13.5h0c14.8,0,20.7-7,21.2-13.5c0.3-3.9-0.8-7.3-3.2-9.9c-0.5-0.6-1.2-1.2-2-1.8l-1.1-0.8l1-0.9
	c2.8-2.6,3.6-5.5,3.8-7.5c0.3-3.4-0.6-6.5-2.8-8.9C191.5,367,185.7,365.1,178,365.1L178,365.1z M88.1,366.3v46.8h9.1v-46.8H88.1z
	 M219.2,366.3l-13.4,29.2l-0.1,8.2h26.6v9.4h8.2v-9.4h5.3v-8.2h-5.3v-29.2H219.2L219.2,366.3z M128.9,373.2c5.2,0,9.1,1.1,10.8,2.9
	c0.7,0.7,0.9,1.5,0.8,2.6c-0.3,2.5-4,5.1-11.6,5.1c-7.6,0-11.3-2.6-11.6-5.1c-0.1-1.1,0.1-1.9,0.8-2.6
	C119.8,374.3,123.7,373.2,128.9,373.2z M178,373.2c5.2,0,9.1,1.1,10.8,2.9c0.7,0.7,0.9,1.5,0.8,2.6c-0.3,2.5-4,5.1-11.6,5.1
	c-7.6,0-11.3-2.6-11.6-5.1c-0.1-1.1,0.1-1.9,0.8-2.6C168.8,374.3,172.8,373.2,178,373.2z M224.4,374.6h7.9v21h-17.6L224.4,374.6z
	 M128.9,392.9c2.1,0,9.3,0.2,12,3.2c0.9,0.9,1.2,2.1,1,3.7c-0.4,4.4-7,6-13.1,6c-6.1,0-12.7-1.6-13.1-6c-0.1-1.6,0.2-2.8,1-3.7
	C118.7,394,123.1,392.9,128.9,392.9z M178,392.9c2.1,0,9.3,0.2,12,3.2c0.9,0.9,1.2,2.1,1,3.7c-0.4,4.4-7,6-13.1,6
	c-6.1,0-12.7-1.6-13.1-6c-0.1-1.6,0.2-2.8,1-3.7C167.7,394.1,172.2,392.9,178,392.9z"/>
<path id="path4162" class="st1" d="M177.1,189.2c-3.3-2-0.1-5.1,3-5.1c5,0,9.4,4.3,9.4,4.3S181,191.6,177.1,189.2 M131,232.3
	c-11.5,3.1-8.4-22.1,6.1-42.2c14.8-20.5,26.5-26.6,26.5-26.6C161.1,193.4,143.2,229,131,232.3 M202.4,151.1
	c-7.3-3.5-17.6-1.7-27,1.7l0,0c0.7-13-1.3-16.7-1.3-16.7l-10.7,3c0,0,1.4,7.5,0.7,19.1h0c-27.9,16.1-46.7,43.1-51.9,61.3
	c-5.7,19.8,10.1,26.5,23.4,16.8c32.7-24,39.4-78.7,39.4-78.7c9.9-3,17.7-1.4,22.3,2.6c11.6,10-3.5,25.4-3.5,25.4s-3.9-4.5-11.2-5.2
	c-11.7-1.1-17.7,13-2.1,14.5c2.6,0.2,9.5-0.7,12.1-2c2.6,4.8,1.8,27.1-13.3,33.7c-13.5,5.9-18.6-2.4-18.6-2.4c-0.4,0-7.3,9-6.9,9.9
	c0,0,7.2,10.7,22.9,6.1c12.4-3.6,18.4-14.4,21.5-22.2c5.3-12.9,1.5-24.3-0.6-27.3C218.4,176.2,215.3,156.6,202.4,151.1"/>
</svg>
